<svg xmlns="http://www.w3.org/2000/svg" xmlns:xlink="http://www.w3.org/1999/xlink" width="120" zoomAndPan="magnify" viewBox="0 0 90 89.999999" height="120" preserveAspectRatio="xMidYMid meet" version="1.0"><defs><clipPath id="9594bb6f2d"><path d="M 0 0.398438 L 89.25 0.398438 L 89.25 89.648438 L 0 89.648438 Z M 0 0.398438 " clip-rule="nonzero"/></clipPath></defs><g clip-path="url(#9594bb6f2d)"><path fill="#2d68eb" d="M 44.625 0.398438 C 19.910156 0.398438 0 20.308594 0 45.023438 C 0 69.738281 19.910156 89.648438 44.625 89.648438 C 69.339844 89.648438 89.25 69.738281 89.25 45.023438 C 89.25 20.308594 69.339844 0.398438 44.625 0.398438 Z M 44.625 0.398438 " fill-opacity="1" fill-rule="nonzero"/></g><path fill="#ffffff" d="M 68.652344 44.851562 L 44.625 23.738281 L 20.769531 44.851562 L 20.769531 75.058594 C 20.769531 75.917969 21.453125 76.429688 22.140625 76.429688 L 37.074219 76.429688 L 37.074219 63.214844 C 37.074219 62.355469 37.757812 61.84375 38.445312 61.84375 L 50.804688 61.84375 C 51.660156 61.84375 52.175781 62.527344 52.175781 63.214844 L 52.175781 76.429688 L 67.109375 76.429688 C 67.96875 76.429688 68.480469 75.746094 68.480469 75.058594 Z M 68.652344 44.851562 " fill-opacity="1" fill-rule="nonzero"/><path fill="#ffffff" d="M 68.652344 33.179688 L 68.652344 20.992188 L 59.902344 20.992188 L 60.070312 25.628906 L 44.796875 12.066406 L 44.625 12.238281 L 44.453125 12.066406 L 10.640625 42.277344 L 14.074219 46.222656 L 44.625 19.277344 L 75.175781 46.222656 L 78.78125 42.277344 Z M 68.652344 33.179688 " fill-opacity="1" fill-rule="nonzero"/></svg>