<?xml version="1.0" encoding="utf-8"?>
<!-- Generator: Adobe Illustrator 26.0.2, SVG Export Plug-In . SVG Version: 6.00 Build 0)  -->
<svg version="1.1" id="Layer_1" xmlns="http://www.w3.org/2000/svg" xmlns:xlink="http://www.w3.org/1999/xlink" x="0px" y="0px"
	 viewBox="0 0 2350.2 2385.5" enable-background="new 0 0 2350.2 2385.5" xml:space="preserve">
	<g>
		<path d="M1969.6,853.3L1149.8,283L348.6,855.5c-26.5,18.9-63.3,12.8-82.2-13.7l0,0c-19.8-27.7-13.4-66.3,14.3-86.1l868.1-620.3
			l896.8,623.8c25.4,17.6,31.6,52.5,14,77.9v0C2039.3,866.4,1999,873.7,1969.6,853.3z"/>
	</g>
	<path d="M636.8,1276.2c-25.9-26.1-47.9-53.4-65.5-81.2c-87.4-138.3-65.2-258-31.2-334c41.3-92.3,122.1-164.9,221.8-199.3
		c38.3-13.2,77.8-19.9,117.2-19.9c120.5,0,216.2,61.7,270,106.7c84.2-69.8,173.6-105.2,266.5-105.2c151.9,0,254.3,97.5,258.6,101.6
		l1.1,1.1c101.7,103.4,134.2,232.8,91.5,364.6c-19.7,60.8-55.2,118-102.7,165.5l-516,515.8L636.8,1276.2z"/>
	<path fill="#E3292F" d="M1148.1,836.6c0,0-157.9-185.2-365.5-113.7c-81.2,28-149.2,86.5-184.3,164.9c-30,67.2-43.3,162.7,26.9,273.8
		c16.1,25.6,35.5,48.9,56.8,70.4l466.1,470.2l470.7-470.4c39.4-39.4,69.9-87,87.1-140c26-80.1,29.9-192.2-76.3-300.1
		C1629.6,791.6,1407.4,576.3,1148.1,836.6z"/>
	<g>
		<g>
			<path d="M362.1,1915.4c5-6.2,13.7-5.2,20.7-5.4c27.3,0.3,54.7-0.3,82.1,0.3c18.9,0.6,37.4,9.8,48.4,25.2
				c12.8,15.9,16.1,38.3,10.5,57.7c-4.9,16.3-16.9,29.8-31.4,38.4c9.5,5.9,18.2,13.8,22.1,24.6c5.2,13.1,3.7,27.6,6.7,41.2
				c1.6,9.7,14.6,13.1,14.1,23.7c0.1,11.1-13.7,14.8-22.2,11c-13-6.4-20.9-20.4-22.9-34.4c-2.2-11.4,0.1-23.4-4.2-34.4
				c-5.2-12.3-19.8-16.6-32-16.9c-21.4-0.4-42.9,0-64.3-0.1c0,22.4,0,44.9,0,67.3c0,6-0.3,13.2-5.7,17c-10.2,7.5-27.5-1.6-25.9-14.7
				c-0.2-61.6,0.1-123.3-0.1-185C358.3,1925.8,358.1,1919.6,362.1,1915.4z M389.9,1939.5c0,26.8,0,53.6,0,80.4
				c24.1-0.1,48.2,0.3,72.2-0.1c23.8-2.6,35-30.8,31-52c-2.7-14.6-15.2-28.2-30.7-28.2C438.2,1939.2,414,1939.6,389.9,1939.5z"/>
		</g>
		<path d="M1104.9,1912.1c7.9-4.9,18.3-0.8,22.8,6.7c24.9,37.5,49.5,75.1,74.4,112.6c24.5-36.7,49.1-73.4,73.5-110.1
			c3.2-4.5,6.7-9.8,12.6-10.9c9.2-2.6,19.1,5.6,18.5,15.1c0.2,64.5,0.3,129-0.1,193.4c0.6,17.6-28.7,19.5-30.9,2.4
			c-1.3-50.1-0.1-100.4-0.6-150.6c-19.9,29.6-39.4,59.5-59,89.3c-3.5,5.2-8.5,11.2-15.5,10.7c-6.9,0.1-11.6-5.9-15-11.1
			c-19.7-30.7-39.4-61.3-59.2-92c-0.2,50.5,0.3,101.1-0.3,151.6c0.6,11.2-13.6,18.4-22.5,11.9c-6-3.7-6.4-11.3-6.4-17.6
			c0.1-61.8-0.1-123.5,0.1-185.3C1097,1922,1099.2,1915.4,1104.9,1912.1z"/>
		<path d="M1544,1925.6c-1.3-9.9,9.4-18.2,18.8-15.6c6.1,1.2,9.3,7.2,11.6,12.4c19.4,45.9,38.8,91.7,58.2,137.6
			c3.3,7.8,6.2,15.8,10.6,23c21.4-53,42.4-106.1,63.6-159.2c2.7-6.4,7.5-13.9,15.3-13.9c7.7-0.4,15.7,5.5,16.1,13.5
			c-0.5,6.9-3.9,13.2-6.4,19.5c-25.4,59.6-50.4,119.3-75.7,178.9c-2.6,7.4-10.7,13.8-18.8,10.9c-6.2-1.3-9.9-7.1-12.4-12.5
			c-24.6-58.3-49.2-116.5-73.8-174.8C1548.4,1939,1545,1932.7,1544,1925.6z"/>
		<g>
			<path d="M1787.3,1914.2c5.1-5,12.7-4,19.2-4.2c27.4,0.3,54.8-0.3,82.1,0.3c18.8,0.4,37.3,9.6,48.5,24.9c13,16,16.4,38.6,10.7,58.2
				c-4.9,16.3-16.9,29.7-31.4,38.3c8.2,5.2,16.1,11.6,20.3,20.6c7.3,13.9,5.2,30.2,8.5,45.2c1.7,9.8,14.8,13.2,14.1,23.9
				c-0.1,11.2-14.3,14.7-22.8,10.5c-12.8-6.7-20.6-20.7-22.3-34.8c-1.8-10.5-0.3-21.4-3.3-31.7c-3.9-12.8-18.3-18.3-30.5-18.7
				c-22.2-0.8-44.4-0.1-66.6-0.3c0,22.4,0,44.9,0,67.3c0,6.1-0.4,13.4-5.9,17.2c-10.1,7.3-27.1-1.7-25.7-14.6
				c-0.2-61.7,0-123.5-0.1-185.2C1782.2,1925.2,1782.3,1918.4,1787.3,1914.2z M1813.9,1939.5c0,26.8,0,53.6,0,80.4
				c23.2,0,46.3,0.1,69.5,0c10.1,0.3,19.3-5.6,25.1-13.6c10.3-14.5,13.2-35.6,3.7-51.2c-5.4-9-15.2-15.7-26-15.6
				C1862.1,1939.3,1838,1939.6,1813.9,1939.5z"/>
		</g>
		<path d="M980.8,1935.8c3.9-12.1,22.9-12.7,27.7-0.9c2.9,10.8,1,22.3,1.5,33.4c10.1,0.3,20.4-0.8,30.5,0.7
			c12.1,2.5,13.4,21.8,1.7,25.9c-10.5,2.5-21.5,0.7-32.2,1.2c0,30.4,0,60.8,0,91.2c0.2,6.2,0,14.3,6.3,17.9c7.2,4.3,15.3-0.7,23,0.4
			c8.4,3,9.3,15.9,2.3,21c-9.2,8.1-22.6,7.9-34,6c-11.8-1.4-22.1-10.3-25.5-21.6c-2.3-7.6-2.5-15.6-2.5-23.5c0.1-30.4,0-60.9,0-91.3
			c-8.3-0.2-16.8,1-24.8-1.4c-10.3-4.6-10.2-21.5,0.7-25.3c7.8-1.9,16-0.9,24.1-1.1C980,1957.4,978.3,1946.4,980.8,1935.8z"/>
		<g>
			<path d="M585.4,1995.8c14.7-21.8,41.2-35.1,67.5-33.1c40.7,2.4,74.5,41.3,72.9,81.6c-0.7,8.4-9.4,13.5-17.3,12.9
				c-36.8,0.1-73.6-0.1-110.4,0.1c1.8,14.5,7.8,29.1,19.4,38.5c15.8,13.8,39.3,15.8,58.6,9.3c8.6-2.8,15-9.6,22.7-13.8
				c8.1-4.4,19.4,2.3,18.7,11.7c-0.3,7.3-6.5,12.1-11.7,16.3c-35.1,27.4-92.1,22-119.6-13.7C562.8,2074.3,563.6,2027.8,585.4,1995.8z
				M615.5,2002c-9,7.4-13.2,18.8-16,29.8c31.6,0,63.2,0.1,94.8,0c-1.3-9.9-4.5-20-12-26.9C665.1,1987,634.2,1985.9,615.5,2002z"/>
		</g>
		<path d="M799.3,1992.7c11.6-15.8,29.2-28.4,49.2-29.9c17-1.2,35.9,2.6,47.6,16c13.2,15.1,15.3,36.3,15.5,55.5
			c-0.1,28.1,0.3,56.2-0.2,84.3c0.2,8.1-7.1,15.2-15.2,14.9c-8,0.2-15-7-14.8-14.9c-0.6-29.9,0.2-59.8-0.3-89.7
			c-0.3-13.5-5.3-29-18.5-34.9c-20.6-8.4-47.7-0.8-58.5,19.3c-6.2,11.2-4.7,24.5-4.9,36.8c-0.2,22.9,0.3,45.7-0.2,68.6
			c0.5,11.5-13.9,18.8-23.2,12.6c-7.3-4-7-13.2-7-20.4c0.3-43.2-0.3-86.4,0.3-129.6c-0.6-11.4,13.7-19.1,23-12.6
			C800.5,1973.6,799,1984.4,799.3,1992.7z"/>
		<path d="M1364,1978.7c-0.1-10.5,12.1-16.9,21.2-12.5c5.7,2.5,9,8.8,8.8,14.9c0.4,30.1-0.3,60.2,0.3,90.3
			c0.3,12.7,4.7,27.3,17.1,33.2c18.4,8.6,43.5,4.2,55.1-13.4c8.4-12,6.6-27.3,6.8-41.2c0.2-23.8-0.4-47.7,0.3-71.4
			c0.1-8,7.6-14.5,15.5-13.7c8.5-0.1,15.1,8.1,14.5,16.4c0.2,45,0.1,89.9,0.1,134.9c-0.1,20.7-4.1,43.2-19.3,58.5
			c-18.8,19.8-48.2,24.8-74.3,22.1c-12.7-1.7-26.4-4.1-36.3-12.7c-9.6-8.4-0.6-27,12-24.5c10.6,3.2,20.5,9.2,31.9,9.8
			c15.7,1.2,33.8-1.3,44.7-13.9c10.3-11.7,11.1-28.1,11.3-42.8c-11.1,13.4-27.4,22.3-44.9,23.6c-17,2.1-35.9-1.6-48.1-14.5
			c-13.1-13.1-17-32.4-16.7-50.3C1363.9,2040.5,1363.3,2009.6,1364,1978.7z"/>
	</g>
</svg>
