<svg xmlns="http://www.w3.org/2000/svg" xmlns:xlink="http://www.w3.org/1999/xlink" width="500" zoomAndPan="magnify" viewBox="0 0 375 374.999991" height="500" preserveAspectRatio="xMidYMid meet" version="1.0"><defs><clipPath id="ca5b39c7ad"><path d="M 59.066406 53.164062 L 315.933594 53.164062 L 315.933594 310.035156 L 59.066406 310.035156 Z M 59.066406 53.164062 " clip-rule="nonzero"/></clipPath><clipPath id="b0c8f59207"><path d="M 187.5 53.164062 C 116.566406 53.164062 59.066406 110.664062 59.066406 181.597656 C 59.066406 252.53125 116.566406 310.035156 187.5 310.035156 C 258.433594 310.035156 315.933594 252.53125 315.933594 181.597656 C 315.933594 110.664062 258.433594 53.164062 187.5 53.164062 " clip-rule="nonzero"/></clipPath><clipPath id="90abd9546a"><path d="M 105.355469 98.476562 L 269.605469 98.476562 L 269.605469 246.976562 L 105.355469 246.976562 Z M 105.355469 98.476562 " clip-rule="nonzero"/></clipPath></defs><g clip-path="url(#ca5b39c7ad)"><g clip-path="url(#b0c8f59207)"><path fill="#5271ff" d="M 59.066406 53.164062 L 315.933594 53.164062 L 315.933594 310.035156 L 59.066406 310.035156 Z M 59.066406 53.164062 " fill-opacity="1" fill-rule="nonzero"/></g></g><g clip-path="url(#90abd9546a)"><path fill="#ffffff" d="M 244.933594 239.523438 C 228.554688 238.164062 207.683594 233.203125 194.449219 224.953125 C 195.980469 224.09375 198.101562 222.839844 200.628906 221.175781 C 205.59375 217.910156 212.726562 212.65625 218.523438 206.183594 C 221.027344 203.386719 223.0625 200.21875 224.570312 196.773438 C 226.070312 193.332031 227.015625 189.691406 227.375 185.953125 C 227.488281 184.75 227.5625 183.679688 227.585938 182.769531 C 227.679688 179.460938 227.089844 176.21875 225.832031 173.132812 C 224.632812 170.183594 222.886719 167.515625 220.644531 165.210938 C 218.398438 162.90625 215.785156 161.089844 212.867188 159.8125 C 209.816406 158.472656 206.589844 157.792969 203.277344 157.792969 L 203.203125 157.792969 C 197.441406 157.808594 191.90625 159.851562 187.554688 163.554688 C 183.179688 159.835938 177.617188 157.792969 171.824219 157.792969 C 169.34375 157.792969 166.839844 158.167969 164.390625 158.90625 C 160.675781 160.027344 157.253906 162.082031 154.5 164.84375 C 151.75 167.605469 149.710938 171.027344 148.597656 174.746094 C 148.183594 176.136719 147.886719 177.738281 147.710938 179.511719 C 146.726562 189.605469 150.257812 199.714844 157.394531 207.246094 C 163.230469 213.410156 170.230469 218.394531 175.074219 221.492188 C 177.375 222.964844 179.320312 224.09375 180.777344 224.902344 C 167.546875 233.183594 146.625 238.160156 130.214844 239.523438 L 130.214844 156.65625 L 136.449219 151.339844 L 145.097656 143.96875 L 187.945312 107.445312 L 225.542969 142.546875 L 227.066406 143.96875 L 234.960938 151.339844 L 235.25 151.609375 L 244.933594 160.648438 Z M 188.207031 219.527344 C 188.066406 219.542969 187.917969 219.5625 187.773438 219.578125 C 187.714844 219.585938 187.644531 219.59375 187.574219 219.601562 C 187.5 219.59375 187.433594 219.585938 187.375 219.578125 C 187.328125 219.574219 187.28125 219.570312 187.238281 219.5625 C 185.726562 218.835938 182.617188 217.167969 178.789062 214.695312 C 174.445312 211.890625 168.183594 207.402344 163.007812 201.9375 C 157.410156 196.027344 154.640625 188.125 155.40625 180.257812 C 155.53125 178.980469 155.734375 177.871094 156.007812 176.953125 C 157.539062 171.828125 161.507812 167.84375 166.625 166.300781 C 168.351562 165.777344 170.101562 165.515625 171.824219 165.515625 C 177.464844 165.515625 182.667969 168.347656 185.746094 173.089844 C 186.144531 173.703125 186.820312 174.066406 187.550781 174.066406 C 188.285156 174.066406 188.960938 173.699219 189.359375 173.085938 C 192.425781 168.363281 197.605469 165.53125 203.222656 165.515625 L 203.277344 165.515625 C 207.648438 165.515625 211.957031 167.367188 215.101562 170.597656 C 218.246094 173.828125 219.980469 178.1875 219.859375 182.554688 C 219.839844 183.285156 219.777344 184.183594 219.679688 185.21875 C 219.121094 191.0625 216.664062 196.675781 212.761719 201.035156 C 207.644531 206.753906 201.28125 211.46875 196.847656 214.417969 C 192.949219 217.011719 189.773438 218.757812 188.207031 219.527344 Z M 187.691406 219.773438 C 187.632812 219.75 187.566406 219.71875 187.496094 219.6875 C 187.523438 219.683594 187.546875 219.679688 187.570312 219.675781 C 187.652344 219.683594 187.738281 219.699219 187.820312 219.714844 C 187.773438 219.734375 187.730469 219.757812 187.691406 219.773438 Z M 268.039062 172.132812 L 252.3125 157.449219 L 240.289062 146.226562 C 240.292969 146.117188 240.296875 146.003906 240.296875 145.890625 L 240.296875 125.65625 C 240.296875 123.785156 238.777344 122.265625 236.90625 122.265625 L 228.933594 122.265625 C 227.0625 122.265625 225.542969 123.785156 225.542969 125.65625 L 225.542969 132.457031 L 190.574219 99.8125 C 189.203125 98.53125 187.089844 98.484375 185.664062 99.703125 L 133.730469 143.96875 L 122.835938 153.257812 L 107.09375 166.679688 C 105.542969 168 105.359375 170.328125 106.679688 171.875 C 108.003906 173.421875 110.332031 173.605469 111.878906 172.285156 L 122.835938 162.945312 L 122.835938 243.285156 C 122.835938 245.320312 124.488281 246.96875 126.523438 246.96875 L 129.101562 246.96875 C 129.101562 246.96875 129.980469 246.9375 130.214844 246.917969 C 140.464844 246.113281 151.949219 243.964844 161.914062 240.976562 C 167.96875 239.164062 173.464844 237.054688 178.253906 234.710938 C 181.742188 233.003906 184.859375 231.167969 187.574219 229.222656 C 188.929688 230.195312 190.386719 231.140625 191.945312 232.054688 C 193.496094 232.972656 195.148438 233.855469 196.890625 234.710938 C 201.679688 237.054688 207.175781 239.164062 213.230469 240.976562 C 223.195312 243.964844 234.683594 246.113281 244.933594 246.917969 C 245.164062 246.9375 246.046875 246.96875 246.046875 246.96875 L 248.621094 246.96875 C 250.660156 246.96875 252.3125 245.320312 252.3125 243.285156 L 252.3125 167.535156 L 263 177.519531 C 263.710938 178.183594 264.617188 178.511719 265.519531 178.511719 C 266.503906 178.511719 267.488281 178.117188 268.214844 177.34375 C 269.605469 175.855469 269.527344 173.523438 268.039062 172.132812 " fill-opacity="1" fill-rule="nonzero"/></g></svg>