<svg xmlns="http://www.w3.org/2000/svg" xmlns:xlink="http://www.w3.org/1999/xlink" width="500" zoomAndPan="magnify" viewBox="0 0 375 374.999991" height="500" preserveAspectRatio="xMidYMid meet" version="1.0"><defs><clipPath id="186029cc3b"><path d="M 59.066406 53.164062 L 315.933594 53.164062 L 315.933594 310.035156 L 59.066406 310.035156 Z M 59.066406 53.164062 " clip-rule="nonzero"/></clipPath><clipPath id="1f7e1f6157"><path d="M 187.5 53.164062 C 116.566406 53.164062 59.066406 110.664062 59.066406 181.597656 C 59.066406 252.53125 116.566406 310.035156 187.5 310.035156 C 258.433594 310.035156 315.933594 252.53125 315.933594 181.597656 C 315.933594 110.664062 258.433594 53.164062 187.5 53.164062 " clip-rule="nonzero"/></clipPath><clipPath id="dbd07ea9f2"><path d="M 113 97 L 262.5 97 L 262.5 246.609375 L 113 246.609375 Z M 113 97 " clip-rule="nonzero"/></clipPath></defs><g clip-path="url(#186029cc3b)"><g clip-path="url(#1f7e1f6157)"><path fill="#5271ff" d="M 59.066406 53.164062 L 315.933594 53.164062 L 315.933594 310.035156 L 59.066406 310.035156 Z M 59.066406 53.164062 " fill-opacity="1" fill-rule="nonzero"/></g></g><g clip-path="url(#dbd07ea9f2)"><path fill="#ffffff" d="M 261.191406 187.039062 L 193.1875 131.023438 C 197.789062 126.96875 202.152344 122.667969 206.273438 118.125 C 206.835938 117.386719 207.3125 116.589844 207.695312 115.742188 C 208.078125 114.894531 208.363281 114.015625 208.546875 113.105469 C 208.734375 112.191406 208.8125 111.269531 208.789062 110.339844 C 208.765625 109.410156 208.636719 108.492188 208.40625 107.59375 C 208.148438 106.578125 207.78125 105.605469 207.300781 104.671875 C 206.824219 103.742188 206.246094 102.875 205.574219 102.074219 C 204.898438 101.277344 204.144531 100.5625 203.308594 99.929688 C 202.472656 99.300781 201.574219 98.773438 200.621094 98.347656 C 199.566406 97.902344 198.472656 97.609375 197.335938 97.472656 C 196.199219 97.332031 195.066406 97.355469 193.9375 97.535156 C 192.808594 97.714844 191.726562 98.046875 190.6875 98.53125 C 189.652344 99.015625 188.703125 99.632812 187.839844 100.382812 C 186.976562 99.632812 186.023438 99.019531 184.988281 98.535156 C 183.953125 98.050781 182.871094 97.71875 181.738281 97.539062 C 180.609375 97.359375 179.476562 97.339844 178.34375 97.476562 C 177.207031 97.613281 176.113281 97.902344 175.058594 98.347656 C 174.101562 98.773438 173.207031 99.300781 172.371094 99.929688 C 171.535156 100.5625 170.777344 101.277344 170.105469 102.074219 C 169.429688 102.875 168.855469 103.742188 168.375 104.671875 C 167.898438 105.605469 167.53125 106.578125 167.273438 107.59375 C 167.042969 108.492188 166.914062 109.410156 166.890625 110.339844 C 166.867188 111.269531 166.945312 112.191406 167.128906 113.105469 C 167.316406 114.015625 167.597656 114.894531 167.984375 115.742188 C 168.367188 116.589844 168.839844 117.386719 169.40625 118.125 C 173.527344 122.667969 177.886719 126.96875 182.492188 131.023438 L 114.488281 187.039062 C 114.128906 187.332031 113.839844 187.6875 113.621094 188.097656 C 113.398438 188.507812 113.269531 188.945312 113.222656 189.40625 C 113.175781 189.871094 113.222656 190.324219 113.355469 190.769531 C 113.492188 191.214844 113.707031 191.617188 114 191.976562 C 114.296875 192.339844 114.648438 192.628906 115.058594 192.847656 C 115.46875 193.066406 115.90625 193.199219 116.371094 193.246094 C 116.832031 193.292969 117.289062 193.246094 117.734375 193.113281 C 118.179688 192.976562 118.582031 192.761719 118.941406 192.46875 L 131.871094 181.8125 L 131.871094 243.082031 C 131.867188 243.546875 131.953125 243.996094 132.128906 244.429688 C 132.304688 244.863281 132.558594 245.242188 132.886719 245.574219 C 133.214844 245.90625 133.597656 246.160156 134.027344 246.339844 C 134.457031 246.519531 134.90625 246.609375 135.375 246.609375 L 169.371094 246.609375 C 169.835938 246.609375 170.28125 246.519531 170.707031 246.34375 C 171.136719 246.164062 171.511719 245.910156 171.839844 245.585938 C 172.167969 245.257812 172.421875 244.878906 172.597656 244.453125 C 172.777344 244.023438 172.867188 243.578125 172.867188 243.113281 L 172.867188 213.453125 C 172.867188 212.472656 172.960938 211.496094 173.152344 210.53125 C 173.347656 209.570312 173.628906 208.632812 174.007812 207.722656 C 174.382812 206.816406 174.84375 205.953125 175.390625 205.136719 C 175.9375 204.316406 176.558594 203.5625 177.25 202.867188 C 177.945312 202.171875 178.703125 201.550781 179.519531 201.003906 C 180.339844 200.457031 181.203125 199.996094 182.109375 199.621094 C 183.019531 199.246094 183.953125 198.960938 184.917969 198.769531 C 185.882812 198.578125 186.855469 198.480469 187.839844 198.480469 C 188.824219 198.480469 189.796875 198.578125 190.761719 198.769531 C 191.726562 198.960938 192.660156 199.246094 193.570312 199.621094 C 194.476562 199.996094 195.339844 200.457031 196.15625 201.003906 C 196.976562 201.550781 197.730469 202.171875 198.425781 202.867188 C 199.121094 203.5625 199.742188 204.316406 200.289062 205.136719 C 200.835938 205.953125 201.296875 206.816406 201.671875 207.722656 C 202.046875 208.632812 202.332031 209.570312 202.523438 210.53125 C 202.714844 211.496094 202.8125 212.472656 202.8125 213.453125 L 202.8125 243.082031 C 202.8125 243.542969 202.902344 243.988281 203.082031 244.417969 C 203.257812 244.84375 203.511719 245.222656 203.839844 245.550781 C 204.164062 245.878906 204.542969 246.128906 204.972656 246.308594 C 205.398438 246.484375 205.84375 246.574219 206.308594 246.578125 L 240.304688 246.578125 C 240.769531 246.578125 241.214844 246.488281 241.644531 246.308594 C 242.074219 246.132812 242.453125 245.878906 242.78125 245.554688 C 243.109375 245.226562 243.359375 244.847656 243.539062 244.417969 C 243.71875 243.992188 243.808594 243.542969 243.808594 243.082031 L 243.808594 181.785156 L 256.738281 192.441406 C 257.097656 192.734375 257.5 192.949219 257.945312 193.085938 C 258.390625 193.21875 258.84375 193.261719 259.308594 193.21875 C 259.773438 193.171875 260.207031 193.039062 260.617188 192.820312 C 261.027344 192.597656 261.382812 192.308594 261.675781 191.949219 C 261.972656 191.589844 262.1875 191.1875 262.320312 190.742188 C 262.457031 190.296875 262.5 189.84375 262.457031 189.378906 C 262.410156 188.917969 262.277344 188.480469 262.058594 188.070312 C 261.839844 187.660156 261.550781 187.304688 261.191406 187.011719 Z M 174.945312 113.851562 C 174.453125 113.191406 174.128906 112.460938 173.976562 111.65625 C 173.820312 110.851562 173.847656 110.054688 174.0625 109.261719 C 174.328125 108.242188 174.808594 107.335938 175.492188 106.535156 C 176.179688 105.738281 177.003906 105.128906 177.96875 104.707031 C 181.519531 103.078125 184.453125 107.097656 185.132812 107.421875 C 185.296875 107.621094 185.480469 107.796875 185.683594 107.953125 C 185.886719 108.109375 186.105469 108.242188 186.339844 108.351562 C 186.570312 108.460938 186.8125 108.542969 187.0625 108.601562 C 187.316406 108.65625 187.570312 108.683594 187.824219 108.683594 C 188.082031 108.683594 188.335938 108.65625 188.585938 108.601562 C 188.839844 108.542969 189.082031 108.460938 189.3125 108.351562 C 189.546875 108.242188 189.765625 108.109375 189.96875 107.953125 C 190.171875 107.796875 190.355469 107.621094 190.519531 107.421875 C 190.5625 107.382812 194.207031 103.113281 197.695312 104.707031 C 198.660156 105.128906 199.488281 105.738281 200.171875 106.535156 C 200.859375 107.335938 201.335938 108.242188 201.605469 109.261719 C 201.816406 110.054688 201.84375 110.851562 201.691406 111.65625 C 201.539062 112.460938 201.21875 113.191406 200.726562 113.851562 C 196.644531 118.261719 192.347656 122.457031 187.839844 126.433594 C 183.324219 122.460938 179.027344 118.265625 174.945312 113.851562 Z M 236.804688 239.578125 L 209.808594 239.578125 L 209.808594 213.453125 C 209.808594 212.734375 209.773438 212.015625 209.703125 211.300781 C 209.632812 210.585938 209.527344 209.875 209.386719 209.167969 C 209.246094 208.464844 209.070312 207.765625 208.863281 207.078125 C 208.652344 206.390625 208.410156 205.714844 208.132812 205.050781 C 207.859375 204.386719 207.550781 203.734375 207.210938 203.101562 C 206.871094 202.46875 206.503906 201.851562 206.101562 201.253906 C 205.703125 200.65625 205.277344 200.078125 204.820312 199.523438 C 204.363281 198.964844 203.878906 198.433594 203.371094 197.925781 C 202.863281 197.417969 202.328125 196.933594 201.773438 196.476562 C 201.21875 196.023438 200.640625 195.59375 200.042969 195.195312 C 199.445312 194.796875 198.828125 194.425781 198.191406 194.085938 C 197.558594 193.746094 196.910156 193.441406 196.246094 193.164062 C 195.578125 192.890625 194.902344 192.648438 194.214844 192.441406 C 193.527344 192.230469 192.828125 192.054688 192.125 191.917969 C 191.417969 191.777344 190.707031 191.671875 189.992188 191.601562 C 189.277344 191.53125 188.558594 191.496094 187.839844 191.496094 C 187.121094 191.496094 186.402344 191.53125 185.6875 191.601562 C 184.96875 191.671875 184.261719 191.777344 183.554688 191.917969 C 182.847656 192.054688 182.152344 192.230469 181.464844 192.441406 C 180.773438 192.648438 180.097656 192.890625 179.433594 193.164062 C 178.769531 193.441406 178.121094 193.746094 177.484375 194.085938 C 176.851562 194.425781 176.234375 194.796875 175.636719 195.195312 C 175.039062 195.59375 174.460938 196.023438 173.90625 196.476562 C 173.347656 196.933594 172.816406 197.417969 172.308594 197.925781 C 171.796875 198.433594 171.316406 198.964844 170.859375 199.523438 C 170.402344 200.078125 169.976562 200.65625 169.574219 201.253906 C 169.175781 201.851562 168.804688 202.46875 168.464844 203.101562 C 168.128906 203.734375 167.820312 204.386719 167.542969 205.050781 C 167.269531 205.714844 167.027344 206.390625 166.816406 207.078125 C 166.609375 207.765625 166.433594 208.464844 166.292969 209.167969 C 166.152344 209.875 166.046875 210.585938 165.976562 211.300781 C 165.90625 212.015625 165.867188 212.734375 165.867188 213.453125 L 165.867188 239.578125 L 138.867188 239.578125 L 138.867188 176.023438 L 187.839844 135.679688 L 236.808594 176.023438 Z M 236.804688 239.578125 " fill-opacity="1" fill-rule="nonzero"/></g></svg>