<svg xmlns="http://www.w3.org/2000/svg" xmlns:xlink="http://www.w3.org/1999/xlink" width="500" zoomAndPan="magnify" viewBox="0 0 375 374.999991" height="500" preserveAspectRatio="xMidYMid meet" version="1.0"><defs><clipPath id="f4ebe61452"><path d="M 59.066406 53.164062 L 315.933594 53.164062 L 315.933594 310.035156 L 59.066406 310.035156 Z M 59.066406 53.164062 " clip-rule="nonzero"/></clipPath><clipPath id="926495ebe1"><path d="M 187.5 53.164062 C 116.566406 53.164062 59.066406 110.664062 59.066406 181.597656 C 59.066406 252.53125 116.566406 310.035156 187.5 310.035156 C 258.433594 310.035156 315.933594 252.53125 315.933594 181.597656 C 315.933594 110.664062 258.433594 53.164062 187.5 53.164062 " clip-rule="nonzero"/></clipPath><clipPath id="76eb3c0fed"><path d="M 99.269531 111.011719 L 275.519531 111.011719 L 275.519531 252.011719 L 99.269531 252.011719 Z M 99.269531 111.011719 " clip-rule="nonzero"/></clipPath></defs><g clip-path="url(#f4ebe61452)"><g clip-path="url(#926495ebe1)"><path fill="#5271ff" d="M 59.066406 53.164062 L 315.933594 53.164062 L 315.933594 310.035156 L 59.066406 310.035156 Z M 59.066406 53.164062 " fill-opacity="1" fill-rule="nonzero"/></g></g><g clip-path="url(#76eb3c0fed)"><path fill="#ffffff" d="M 187.394531 111.011719 C 164.742188 111.011719 146.269531 129.488281 146.269531 152.136719 C 146.269531 166.273438 153.496094 178.804688 164.421875 186.195312 C 143.421875 195.167969 128.644531 216.027344 128.644531 240.261719 L 140.394531 240.261719 C 140.394531 219.539062 153.726562 202.050781 172.269531 195.761719 L 185.925781 209.417969 L 175.644531 240.261719 L 187.394531 252.011719 L 199.140625 240.261719 L 188.863281 209.417969 L 202.515625 195.761719 C 221.058594 202.050781 234.390625 219.539062 234.390625 240.261719 L 246.140625 240.261719 C 246.140625 216.027344 231.363281 195.167969 210.363281 186.195312 C 221.289062 178.804688 228.515625 166.273438 228.515625 152.136719 C 228.515625 129.488281 210.042969 111.011719 187.394531 111.011719 Z M 187.394531 122.761719 C 203.6875 122.761719 216.765625 135.84375 216.765625 152.136719 C 216.765625 168.429688 203.6875 181.511719 187.394531 181.511719 C 171.097656 181.511719 158.019531 168.429688 158.019531 152.136719 C 158.019531 135.84375 171.097656 122.761719 187.394531 122.761719 Z M 234.390625 129.050781 L 234.390625 141.007812 C 244.992188 143.050781 252.015625 150.644531 252.015625 160.949219 C 252.015625 171.253906 244.992188 178.851562 234.390625 180.890625 L 234.390625 193.8125 C 250.820312 196.703125 263.765625 211.414062 263.765625 228.511719 L 275.515625 228.511719 C 275.515625 210.773438 265.050781 194.960938 250.109375 186.996094 C 258.554688 181.257812 263.765625 172.011719 263.765625 160.949219 C 263.765625 144.082031 251.71875 131.414062 234.390625 129.050781 Z M 140.394531 129.097656 C 123.296875 131.507812 111.019531 144.378906 111.019531 160.949219 C 111.019531 172.011719 116.230469 181.257812 124.675781 186.996094 C 109.734375 194.960938 99.269531 210.773438 99.269531 228.511719 L 111.019531 228.511719 C 111.019531 211.414062 123.964844 196.703125 140.394531 193.8125 L 140.394531 180.890625 C 129.792969 178.851562 122.769531 171.253906 122.769531 160.949219 C 122.769531 150.828125 129.929688 143.140625 140.394531 141.03125 Z M 140.394531 129.097656 " fill-opacity="1" fill-rule="nonzero"/></g></svg>